<svg width="1338" height="1306" xmlns="http://www.w3.org/2000/svg" xmlns:xlink="http://www.w3.org/1999/xlink" xml:space="preserve" overflow="hidden"><g transform="translate(-589 -441)"><path d="M611.5 1028.5C611.5 705.966 902.067 444.5 1260.5 444.5 1618.93 444.5 1909.5 705.966 1909.5 1028.5 1641.41 705.966 1133.51 640.064 775.078 881.305 713.01 923.079 657.923 972.649 611.5 1028.5Z" stroke="#FFC000" stroke-width="6.875" stroke-miterlimit="8" fill="#FFC000" fill-rule="evenodd"/><text fill="#3B7D23" font-family="FlemishScript BT,FlemishScript BT_MSFontService,sans-serif" font-weight="700" font-size="413" transform="matrix(1 0 0 1 836.847 1194)">JH</text><path d="M1914.5 1159.5C1914.5 1482.03 1623.71 1743.5 1265 1743.5 906.291 1743.5 615.5 1482.03 615.5 1159.5 883.797 1482.03 1392.09 1547.94 1750.8 1306.7 1812.91 1264.92 1868.04 1215.35 1914.5 1159.5Z" stroke="#FFC000" stroke-width="6.875" stroke-miterlimit="8" fill="#FFC000" fill-rule="evenodd"/><g><g><g><path d="M245.095 521.755C244.076 521.674 240.895 521.388 237.959 521.144 232.127 520.654 222.054 519.146 217.446 518.126L214.509 517.433 214.509 495.859 214.509 474.245 208.841 465.804C202.397 456.261 197.748 450.47 193.711 447.003 186.615 440.886 180.294 437.828 170.466 435.707 167.733 435.095 165.205 434.973 158.639 434.973 149.83 434.973 144.855 435.503 136.617 437.379L132.417 438.317 117.491 453.243 102.524 468.21 96.8555 463.642C80.176 450.307 65.8617 435.544 53.2195 418.701L50.8542 415.52 65.3316 400.961 79.8497 386.402 81.481 382.12C85.5183 371.599 87.068 364.217 87.068 355.409 87.068 349.21 86.701 346.682 85.1513 341.584 81.1955 328.738 69.1242 316.789 49.6308 306.471L45.3895 304.228 24.5911 304.228C6.76969 304.228 3.71109 304.147 3.54797 303.657 3.14016 302.597 1.305 289.955 0.734063 284.449 0.407813 281.105 0.203906 273.602 0.244688 264.263 0.244688 249.051 0.6525 241.711 2.44688 225.357 2.89547 221.32 3.2625 217.894 3.2625 217.69 3.2625 217.527 12.5198 217.364 23.8163 217.364L44.3292 217.364 47.7549 215.978C64.7606 209.086 74.7113 200.725 80.3799 188.573 86.13 176.379 86.0892 158.721 80.2983 138.901L79.4419 136.006 64.9238 121.447 50.4056 106.888 51.5067 105.256C53.3419 102.483 60.4378 93.7969 65.7802 87.8428 76.0163 76.3425 86.8641 65.9433 97.2225 57.6647L102.524 53.3827 117.654 68.5125 132.784 83.6016 136.006 84.0094C141.796 84.7027 156.845 84.9474 162.309 84.458 180.008 82.8267 192.528 76.9542 202.642 65.5355 205.701 62.0283 210.513 54.8916 212.837 50.3241L214.509 47.0208 214.509 25.6106 214.509 4.20047 218.71 3.54797C224.582 2.61 235.267 1.34578 242.241 0.734063 249.948 0.0407813 273.438 0.0815625 280.371 0.734063 285.958 1.305 299.457 3.14016 300.68 3.50719 301.333 3.71109 301.374 5.09766 301.374 25.4475L301.374 47.1431 303.249 51.0174C309 62.8439 318.175 72.4275 329.105 77.8922 333.876 80.2983 340.972 82.5413 347.252 83.6424 351.861 84.458 353.941 84.5803 362.953 84.6211 369.234 84.6211 375.269 84.4172 378.246 84.0502L383.14 83.52 399.33 67.2075 415.561 50.8542 417.07 52.0369C420.536 54.6061 431.588 63.7003 436.156 67.6969 448.472 78.5039 459.523 90.3713 466.945 100.852L468.332 102.81 452.142 119 435.952 135.19 434.565 142.123C432.159 154.072 431.71 157.783 431.71 165.98 431.67 171.811 431.874 174.299 432.445 176.991 434.402 185.963 437.991 192.773 444.312 199.38 450.103 205.456 456.261 209.779 466.048 214.673L471.431 217.364 494.881 217.364 518.33 217.364 518.534 218.302C518.819 219.729 519.92 228.416 520.573 234.9 522.693 255.902 522.326 278.74 519.513 297.255 519.064 300.313 518.615 303.127 518.493 303.535 518.289 304.187 516.78 304.228 494.473 304.228L470.657 304.228 465.437 306.838C443.415 317.89 433.464 331.674 432.077 353.166 431.67 359.487 432.975 372.945 435.136 384.159L435.544 386.402 452.06 402.919 468.577 419.435 465.967 423.228C457.607 435.585 445.291 448.268 430.405 459.809 422.983 465.64 415.235 471.146 414.827 470.942 414.623 470.901 407.323 463.846 398.678 455.323 387.3 444.149 382.487 439.663 381.386 439.296 380.571 438.97 377.308 438.195 374.168 437.542 343.704 431.221 320.908 441.58 303.82 469.596L301.374 473.634 301.374 496.186C301.374 514.741 301.292 518.738 300.843 518.738 300.517 518.738 297.01 519.105 292.973 519.553 278.128 521.185 271.114 521.633 259.165 521.755 252.436 521.837 246.115 521.837 245.095 521.755ZM274.662 350.474C284.531 349.292 294.318 346.314 304.024 341.543 314.301 336.486 321.968 330.94 329.961 322.743 341.829 310.509 350.148 295.052 353.981 278.087 356.632 266.302 356.714 250.438 354.145 238.774 346.763 205.456 322.988 179.111 291.015 168.875 281.187 165.735 273.683 164.593 262.835 164.593 247.665 164.593 235.553 167.366 222.054 173.932 208.515 180.498 196.933 189.959 188.369 201.459 183.76 207.658 181.884 210.717 178.622 217.446 173.851 227.192 170.751 238.122 169.609 249.133 168.957 255.372 169.365 266.709 170.425 273.031 175.441 302.679 193.344 327.229 219.933 340.931 237.061 349.781 254.842 352.88 274.662 350.474Z" fill="#404040" transform="matrix(1 0 0 -1 1386 1743)"/></g></g></g></g></svg>