<svg width="1357" height="1289" xmlns="http://www.w3.org/2000/svg" xmlns:xlink="http://www.w3.org/1999/xlink" xml:space="preserve" overflow="hidden"><g transform="translate(-259 -352)"><path d="M1609.5 1015.5C1609.5 1359.02 1318.71 1637.5 960 1637.5 601.291 1637.5 310.5 1359.02 310.5 1015.5 493.982 1359.02 933.516 1495.06 1292.22 1319.34 1428.69 1252.5 1539.7 1146.19 1609.5 1015.5Z" stroke="#FFC000" stroke-width="6.875" stroke-miterlimit="8" fill="#FFC000" fill-rule="evenodd"/><path d="M310.5 977.5C310.5 633.979 601.291 355.5 960 355.5 1318.71 355.5 1609.5 633.979 1609.5 977.5 1426.02 633.979 986.484 497.945 627.775 673.658 491.312 740.505 380.301 846.815 310.499 977.5Z" stroke="#FFC000" stroke-width="6.875" stroke-miterlimit="8" fill="#FFC000" fill-rule="evenodd"/><path d="M313.5 1016C313.5 791.496 603.396 609.5 961 609.5 1318.6 609.5 1608.5 791.496 1608.5 1016 1608.5 1240.5 1318.6 1422.5 961 1422.5 603.396 1422.5 313.5 1240.5 313.5 1016Z" stroke="#FFFFFF" stroke-width="6.875" stroke-miterlimit="8" fill="#FFFFFF" fill-rule="evenodd"/><text fill="#3B7D23" font-family="FlemishScript BT,FlemishScript BT_MSFontService,sans-serif" font-weight="700" font-size="440" transform="matrix(1 0 0 1 523.77 1136)">JH</text><g><g><g><path d="M245.095 521.755C244.076 521.674 240.895 521.388 237.958 521.143 232.127 520.654 222.054 519.145 217.446 518.126L214.509 517.432 214.509 495.859 214.509 474.245 208.841 465.803C202.397 456.26 197.748 450.47 193.711 447.003 186.615 440.886 180.294 437.827 170.466 435.707 167.733 435.095 165.205 434.973 158.639 434.973 149.83 434.973 144.855 435.503 136.617 437.379L132.417 438.317 117.491 453.243 102.524 468.209 96.8554 463.642C80.1759 450.306 65.8617 435.544 53.2195 418.701L50.8542 415.52 65.3315 400.961 79.8497 386.402 81.4809 382.12C85.5182 371.599 87.0679 364.217 87.0679 355.408 87.0679 349.21 86.7009 346.681 85.1512 341.584 81.1954 328.738 69.1242 316.789 49.6308 306.471L45.3895 304.228 24.5911 304.228C6.76968 304.228 3.71109 304.146 3.54797 303.657 3.14016 302.597 1.305 289.955 0.734062 284.449 0.407812 281.105 0.203906 273.601 0.244687 264.262 0.244687 249.051 0.6525 241.71 2.44687 225.357 2.89547 221.32 3.2625 217.894 3.2625 217.69 3.2625 217.527 12.5198 217.364 23.8162 217.364L44.3292 217.364 47.7548 215.977C64.7606 209.085 74.7112 200.725 80.3798 188.572 86.13 176.379 86.0892 158.721 80.2982 138.901L79.4418 136.005 64.9237 121.447 50.4056 106.888 51.5067 105.256C53.3419 102.483 60.4378 93.7968 65.7801 87.8428 76.0162 76.3425 86.864 65.9433 97.2225 57.6647L102.524 53.3826 117.654 68.5125 132.784 83.6015 136.005 84.0093C141.796 84.7026 156.845 84.9473 162.309 84.4579 180.008 82.8267 192.528 76.9542 202.642 65.5354 205.701 62.0283 210.513 54.8915 212.837 50.324L214.509 47.0208 214.509 25.6106 214.509 4.20047 218.71 3.54797C224.582 2.61 235.267 1.34578 242.241 0.734062 249.948 0.0407812 273.438 0.0815625 280.371 0.734062 285.958 1.305 299.457 3.14016 300.68 3.50719 301.333 3.71109 301.373 5.09765 301.373 25.4475L301.373 47.1431 303.249 51.0173C308.999 62.8439 318.175 72.4275 329.105 77.8922 333.876 80.2982 340.972 82.5412 347.252 83.6423 351.86 84.4579 353.94 84.5803 362.953 84.6211 369.233 84.6211 375.269 84.4172 378.246 84.0501L383.14 83.52 399.33 67.2075 415.561 50.8542 417.07 52.0369C420.536 54.6061 431.588 63.7003 436.155 67.6968 448.471 78.5039 459.523 90.3712 466.945 100.852L468.332 102.809 452.142 119 435.951 135.19 434.565 142.123C432.159 154.072 431.71 157.783 431.71 165.98 431.669 171.811 431.873 174.299 432.444 176.991 434.402 185.962 437.99 192.773 444.312 199.379 450.102 205.456 456.26 209.779 466.048 214.672L471.431 217.364 494.88 217.364 518.329 217.364 518.533 218.302C518.819 219.729 519.92 228.416 520.572 234.9 522.693 255.902 522.326 278.74 519.512 297.254 519.064 300.313 518.615 303.127 518.493 303.535 518.289 304.187 516.78 304.228 494.472 304.228L470.656 304.228 465.436 306.838C443.414 317.89 433.464 331.674 432.077 353.165 431.669 359.487 432.974 372.944 435.136 384.159L435.544 386.402 452.06 402.919 468.576 419.435 465.966 423.228C457.606 435.584 445.29 448.267 430.405 459.808 422.983 465.64 415.235 471.146 414.827 470.942 414.623 470.901 407.323 463.846 398.677 455.322 387.299 444.148 382.487 439.662 381.386 439.295 380.57 438.969 377.308 438.194 374.168 437.542 343.704 431.221 320.908 441.579 303.82 469.596L301.373 473.633 301.373 496.185C301.373 514.741 301.292 518.737 300.843 518.737 300.517 518.737 297.01 519.104 292.972 519.553 278.128 521.184 271.114 521.633 259.165 521.755 252.436 521.837 246.115 521.837 245.095 521.755ZM274.662 350.474C284.531 349.291 294.318 346.314 304.024 341.543 314.301 336.486 321.968 330.94 329.961 322.743 341.828 310.508 350.148 295.052 353.981 278.087 356.632 266.301 356.713 250.438 354.144 238.774 346.763 205.456 322.987 179.111 291.015 168.875 281.187 165.735 273.683 164.593 262.835 164.593 247.664 164.593 235.552 167.366 222.054 173.932 208.514 180.498 196.933 189.959 188.369 201.459 183.76 207.658 181.884 210.717 178.622 217.446 173.85 227.192 170.751 238.122 169.609 249.133 168.957 255.372 169.364 266.709 170.425 273.03 175.441 302.678 193.344 327.229 219.933 340.931 237.061 349.781 254.842 352.88 274.662 350.474Z" fill="#404040" transform="matrix(1.00192 0 0 -1 1072 1637)"/></g></g></g></g></svg>